<svg width="17" height="16" viewBox="0 0 17 16" fill="none" xmlns="http://www.w3.org/2000/svg">
<rect width="17" height="16" fill="#E5E5E5"/>
<g id="&#208;&#147;&#208;&#187;&#208;&#176;&#208;&#178;&#208;&#189;&#208;&#176;&#209;&#143; &#208;&#177;&#208;&#187;&#208;&#190;&#208;&#179;&#208;&#176;">
<rect width="1441" height="4843" transform="translate(-310 -997)" fill="#F8F9FA"/>
<g id="Frame 283">
<g id="Frame 284">
<rect width="1440" height="246" transform="translate(-309.5 -137)" fill="white"/>
<g id="Frame 280">
<g id="Frame 274">
<g id="Frame 272">
<rect x="-189.5" y="-97" width="373.333" height="146" fill="#F8F9FA"/>
<g id="Frame 271">
<g id="Frame 275">
<g id="Frame 278">
<g id="Frame 277">
<path id="Union" fill-rule="evenodd" clip-rule="evenodd" d="M14.5 8C14.5 11.3137 11.8137 14 8.5 14C5.18629 14 2.5 11.3137 2.5 8C2.5 4.68629 5.18629 2 8.5 2C11.8137 2 14.5 4.68629 14.5 8ZM15.5 8C15.5 11.866 12.366 15 8.5 15C4.63401 15 1.5 11.866 1.5 8C1.5 4.13401 4.63401 1 8.5 1C12.366 1 15.5 4.13401 15.5 8ZM8 4C8 3.72386 8.22386 3.5 8.5 3.5C8.77614 3.5 9 3.72386 9 4V7.75412L11.3896 8.9687C11.6448 9.09839 11.7389 9.41558 11.5958 9.66344C11.4631 9.89329 11.1738 9.97915 10.9372 9.85889L8.46955 8.60467C8.3974 8.56799 8.33812 8.51633 8.29345 8.45548C8.12036 8.37686 8 8.20249 8 8V4Z" fill="#AAAAAA"/>
</g>
</g>
</g>
</g>
</g>
</g>
</g>
</g>
</g>
</g>
</svg>
